<svg width="16" height="16" viewBox="0 0 16 16" fill="none" xmlns="http://www.w3.org/2000/svg">
<g id="carbon:categories">
<path id="Vector" d="M3.38 3L3.605 3.445L3.88 4H6V6.5H2V3H3.38ZM3.69 2H1.5C1.36739 2 1.24021 2.05268 1.14645 2.14645C1.05268 2.24022 1 2.36739 1 2.5V7C1 7.13261 1.05268 7.25979 1.14645 7.35355C1.24021 7.44732 1.36739 7.5 1.5 7.5H6.5C6.63261 7.5 6.75979 7.44732 6.85355 7.35355C6.94732 7.25979 7 7.13261 7 7V3.5C7 3.36739 6.94732 3.24022 6.85355 3.14645C6.75979 3.05268 6.63261 3 6.5 3H4.5L4.14 2.275C4.09807 2.19178 4.03372 2.12194 3.9542 2.07335C3.87469 2.02476 3.78318 1.99935 3.69 2V2Z" fill="white"/>
<path id="Vector_2" d="M11.38 3L11.605 3.445L11.88 4H14V6.5H10V3H11.38V3ZM11.69 2H9.5C9.36739 2 9.24021 2.05268 9.14645 2.14645C9.05268 2.24022 9 2.36739 9 2.5V7C9 7.13261 9.05268 7.25979 9.14645 7.35355C9.24021 7.44732 9.36739 7.5 9.5 7.5H14.5C14.6326 7.5 14.7598 7.44732 14.8536 7.35355C14.9473 7.25979 15 7.13261 15 7V3.5C15 3.36739 14.9473 3.24022 14.8536 3.14645C14.7598 3.05268 14.6326 3 14.5 3H12.5L12.14 2.275C12.0981 2.19178 12.0337 2.12194 11.9542 2.07335C11.8747 2.02476 11.7832 1.99935 11.69 2V2Z" fill="white"/>
<path id="Vector_3" d="M3.38 9.5L3.605 9.945L3.88 10.5H6V13H2V9.5H3.38ZM3.69 8.5H1.5C1.36739 8.5 1.24021 8.55268 1.14645 8.64645C1.05268 8.74021 1 8.86739 1 9V13.5C1 13.6326 1.05268 13.7598 1.14645 13.8536C1.24021 13.9473 1.36739 14 1.5 14H6.5C6.63261 14 6.75979 13.9473 6.85355 13.8536C6.94732 13.7598 7 13.6326 7 13.5V10C7 9.86739 6.94732 9.74021 6.85355 9.64645C6.75979 9.55268 6.63261 9.5 6.5 9.5H4.5L4.14 8.775C4.09807 8.69178 4.03372 8.62194 3.9542 8.57335C3.87469 8.52476 3.78318 8.49935 3.69 8.5V8.5Z" fill="white"/>
<path id="Vector_4" d="M11.38 9.5L11.605 9.945L11.88 10.5H14V13H10V9.5H11.38V9.5ZM11.69 8.5H9.5C9.36739 8.5 9.24021 8.55268 9.14645 8.64645C9.05268 8.74021 9 8.86739 9 9V13.5C9 13.6326 9.05268 13.7598 9.14645 13.8536C9.24021 13.9473 9.36739 14 9.5 14H14.5C14.6326 14 14.7598 13.9473 14.8536 13.8536C14.9473 13.7598 15 13.6326 15 13.5V10C15 9.86739 14.9473 9.74021 14.8536 9.64645C14.7598 9.55268 14.6326 9.5 14.5 9.5H12.5L12.14 8.775C12.0981 8.69178 12.0337 8.62194 11.9542 8.57335C11.8747 8.52476 11.7832 8.49935 11.69 8.5V8.5Z" fill="white"/>
</g>
</svg>
