<svg width="18" height="18" viewBox="0 0 18 18"  xmlns="http://www.w3.org/2000/svg">
<g id="clarity:clipboard-line" fill="white">
<path id="Vector" d="M14.645 2.5H13.5V3.5H14.5V16H3.5V3.5H4.5V2.5H3.5C3.37755 2.48229 3.25274 2.49075 3.1338 2.52482C3.01486 2.55889 2.9045 2.61779 2.81 2.69765C2.7155 2.7775 2.639 2.87649 2.58557 2.98808C2.53213 3.09966 2.50297 3.22131 2.5 3.345V16.155C2.50065 16.2666 2.52329 16.377 2.56661 16.4799C2.60993 16.5828 2.6731 16.6761 2.75249 16.7546C2.83188 16.833 2.92596 16.8951 3.02934 16.9372C3.13272 16.9793 3.24338 17.0007 3.355 17H14.645C14.7566 17.0007 14.8673 16.9793 14.9707 16.9372C15.074 16.8951 15.1681 16.833 15.2475 16.7546C15.3269 16.6761 15.3901 16.5828 15.4334 16.4799C15.4767 16.377 15.4993 16.2666 15.5 16.155V3.345C15.4993 3.23338 15.4767 3.12297 15.4334 3.0201C15.3901 2.91722 15.3269 2.82389 15.2475 2.74542C15.1681 2.66695 15.074 2.6049 14.9707 2.56279C14.8673 2.52068 14.7566 2.49934 14.645 2.5V2.5Z" />
<path id="Vector_2" d="M13 3.665C12.9987 3.35643 12.8755 3.06087 12.6573 2.84267C12.4391 2.62448 12.1436 2.50132 11.835 2.5H10.935C10.8248 2.06979 10.5746 1.68848 10.2238 1.41618C9.87304 1.14388 9.44159 0.996078 8.9975 0.996078C8.55342 0.996078 8.12196 1.14388 7.77116 1.41618C7.42035 1.68848 7.17015 2.06979 7.06 2.5H6.165C5.85643 2.50132 5.56087 2.62448 5.34267 2.84267C5.12448 3.06087 5.00132 3.35643 5 3.665V5.5H13V3.665ZM12 4.5H6V3.665C6 3.64333 6.00427 3.62188 6.01256 3.60186C6.02085 3.58184 6.03301 3.56365 6.04833 3.54833C6.06365 3.53301 6.08184 3.52085 6.10186 3.51256C6.12188 3.50427 6.14333 3.5 6.165 3.5H8V3C8 2.73478 8.10536 2.48043 8.29289 2.29289C8.48043 2.10536 8.73478 2 9 2C9.26522 2 9.51957 2.10536 9.70711 2.29289C9.89464 2.48043 10 2.73478 10 3V3.5H11.835C11.8788 3.5 11.9207 3.51738 11.9517 3.54833C11.9826 3.57927 12 3.62124 12 3.665V4.5Z"/>
<path id="Vector_3" d="M5.5 7H12.5V8H5.5V7Z" />
<path id="Vector_4" d="M5.5 9H12.5V10H5.5V9Z" />
<path id="Vector_5" d="M5.5 11H12.5V12H5.5V11Z" />
<path id="Vector_6" d="M5.5 13H12.5V14H5.5V13Z" />
</g>
</svg>
