<svg width="15" height="15" viewBox="0 0 15 15" fill="none" xmlns="http://www.w3.org/2000/svg">
<g id="maki:warehouse-15">
<path id="Vector" d="M13.5 5C13.4238 5.00031 13.3486 4.98321 13.28 4.95L7.5 2L1.72 4.93C1.59667 4.98835 1.45522 4.99531 1.32676 4.94937C1.1983 4.90342 1.09335 4.80833 1.035 4.685C0.976652 4.56167 0.969685 4.42022 1.01563 4.29176C1.06158 4.1633 1.15667 4.05835 1.28 4L7.5 0.92L13.72 4C13.8511 4.03063 13.9649 4.11167 14.0367 4.22558C14.1085 4.33949 14.1325 4.47709 14.1036 4.60858C14.0746 4.74008 13.9951 4.85489 13.8821 4.92815C13.7691 5.00141 13.6319 5.02722 13.5 5V5ZM5 10H2V13H5V10ZM9 10H6V13H9V10ZM13 10H10V13H13V10ZM11 6H8V9H11V6ZM7 6H4V9H7V6Z" fill="white"/>
</g>
</svg>
